HIERARCHY
ROOT Hips
{
	OFFSET 0.000000 0.000000 0.000000
	CHANNELS 6 Xposition Yposition Zposition Zrotation Yrotation Xrotation
	JOINT Chest
	{
		OFFSET 0.000000 10.364816 -1.151647
		CHANNELS 3 Zrotation Yrotation Xrotation
		JOINT Chest2
		{
			OFFSET 0.000000 11.517722 0.000000
			CHANNELS 3 Zrotation Yrotation Xrotation
			JOINT Chest3
			{
				OFFSET 0.000000 10.515803 -0.000997
				CHANNELS 3 Zrotation Yrotation Xrotation
				JOINT Chest4
				{
					OFFSET 0.000000 10.504064 -0.000998
					CHANNELS 3 Zrotation Yrotation Xrotation
					JOINT Neck
					{
						OFFSET 0.000000 14.700995 0.000000
						CHANNELS 3 Zrotation Yrotation Xrotation
						JOINT Head
						{
							OFFSET 0.000000 9.779656 0.002144
							CHANNELS 3 Zrotation Yrotation Xrotation
							End Site
							{
								OFFSET 0.000000 0.000000 0.000000
							}
						}
					}
					JOINT RightCollar
					{
						OFFSET -3.200323 8.241254 0.000000
						CHANNELS 3 Zrotation Yrotation Xrotation
						JOINT RightShoulder
						{
							OFFSET -14.963748 0.000000 0.000000
							CHANNELS 3 Zrotation Yrotation Xrotation
							JOINT RightElbow
							{
								OFFSET -31.975847 0.000000 0.000000
								CHANNELS 3 Zrotation Yrotation Xrotation
								JOINT RightWrist
								{
									OFFSET -26.149034 0.000000 0.000000
									CHANNELS 3 Zrotation Yrotation Xrotation
									End Site
									{
										OFFSET 0.000000 0.000000 0.000000
									}
								}
							}
						}
					}
					JOINT LeftCollar
					{
						OFFSET 3.200323 8.241254 0.000000
						CHANNELS 3 Zrotation Yrotation Xrotation
						JOINT LeftShoulder
						{
							OFFSET 14.963748 0.000000 0.000000
							CHANNELS 3 Zrotation Yrotation Xrotation
							JOINT LeftElbow
							{
								OFFSET 31.975847 0.000000 0.000000
								CHANNELS 3 Zrotation Yrotation Xrotation
								JOINT LeftWrist
								{
									OFFSET 26.149034 0.000000 0.000000
									CHANNELS 3 Zrotation Yrotation Xrotation
									End Site
									{
										OFFSET 0.000000 0.000000 0.000000
									}
								}
							}
						}
					}
				}
			}
		}
	}
	JOINT RightHip
	{
		OFFSET -8.525852 0.003604 -0.000400
		CHANNELS 3 Zrotation Yrotation Xrotation
		JOINT RightKnee
		{
			OFFSET 0.000000 -44.087434 -0.000236
			CHANNELS 3 Zrotation Yrotation Xrotation
			JOINT RightAnkle
			{
				OFFSET 0.000000 -43.085328 -0.000397
				CHANNELS 3 Zrotation Yrotation Xrotation
				JOINT RightToe
				{
					OFFSET 0.000000 -7.938348 18.057956
					CHANNELS 3 Zrotation Yrotation Xrotation
					End Site
					{
						OFFSET 0.000000 0.000000 0.000000
					}
				}
			}
		}
	}
	JOINT LeftHip
	{
		OFFSET 8.525852 0.001277 -0.000142
		CHANNELS 3 Zrotation Yrotation Xrotation
		JOINT LeftKnee
		{
			OFFSET 0.000000 -44.087434 -0.000236
			CHANNELS 3 Zrotation Yrotation Xrotation
			JOINT LeftAnkle
			{
				OFFSET 0.000000 -43.085328 -0.000397
				CHANNELS 3 Zrotation Yrotation Xrotation
				JOINT LeftToe
				{
					OFFSET 0.000000 -7.938348 18.057956
					CHANNELS 3 Zrotation Yrotation Xrotation
					End Site
					{
						OFFSET 0.000000 0.000000 0.000000
					}
				}
			}
		}
	}
}
MOTION
Frames: 17
Frame Time: 0.004167
216.425095 96.833947 396.991278 -1.751758 -9.447813 3.206213 0.944197 0.279678 1.482620 0.418747 0.127317 -5.167972 0.429508 0.084151 0.652310 0.322048 0.063543 6.325858 -1.104235 0.040809 16.124947 -2.026170 -0.320368 -6.075959 7.706952 0.611798 -2.840394 76.821177 10.905825 10.625531 4.939645 8.316703 28.984312 -2.855275 -6.522618 1.175928 -7.876252 -1.878454 -3.230541 -76.232879 -8.638061 4.977675 -6.635153 -4.489811 23.665797 2.931533 2.458646 7.700654 1.539433 -2.388997 -0.384304 0.339328 -0.008636 1.985400 -2.692170 9.225981 -8.983642 0.000000 0.000000 0.000000 3.195424 3.127853 -5.541833 -0.314020 -0.298067 10.072502 -1.740875 -2.648624 -8.101254 0.000000 -0.000000 0.000000 
216.434841 96.831581 397.000620 -1.726061 -9.444151 3.202297 0.928035 0.275404 1.478477 0.411580 0.125358 -5.169795 0.422179 0.082929 0.650492 0.316552 0.062618 6.324496 -1.106062 0.042003 16.136022 -2.029947 -0.318674 -6.055384 7.710863 0.609846 -2.833034 76.823009 10.909411 10.621398 4.940467 8.317692 28.981745 -2.854228 -6.520975 1.175483 -7.864670 -1.874548 -3.218887 -76.244828 -8.639669 4.984645 -6.635914 -4.489713 23.668837 2.930976 2.457127 7.702643 1.488607 -2.404239 -0.373261 0.375118 -0.011568 1.975448 -2.700432 9.236460 -8.988536 0.000000 0.000000 0.000000 3.161454 3.114493 -5.545869 -0.303045 -0.268321 10.087900 -1.745420 -2.665629 -8.108861 0.000000 0.000000 0.000000 
216.444655 96.829200 397.009945 -1.699874 -9.440660 3.198334 0.911574 0.271093 1.474305 0.404280 0.123381 -5.171632 0.414717 0.081704 0.648661 0.310956 0.061690 6.323125 -1.107888 0.043276 16.146958 -2.033750 -0.316839 -6.035070 7.714724 0.608024 -2.825738 76.824981 10.913034 10.617192 4.941101 8.318539 28.979184 -2.853200 -6.519376 1.175032 -7.852981 -1.870618 -3.207138 -76.256924 -8.641343 4.991610 -6.636673 -4.489637 23.671888 2.930560 2.455601 7.704688 1.436986 -2.419976 -0.362053 0.411432 -0.015371 1.965340 -2.709122 9.249026 -8.994604 0.000000 0.000000 0.000000 3.126987 3.100807 -5.549897 -0.291903 -0.237573 10.103235 -1.750168 -2.683091 -8.116354 0.000000 0.000000 0.000000 
216.454502 96.826812 397.019262 -1.673441 -9.437254 3.194350 0.894963 0.266765 1.470119 0.396914 0.121397 -5.173474 0.407186 0.080478 0.646824 0.305311 0.060762 6.321749 -1.109716 0.044592 16.157824 -2.037568 -0.314929 -6.014885 7.718560 0.606265 -2.818474 76.827025 10.916675 10.612950 4.941640 8.319315 28.976628 -2.852183 -6.517799 1.174578 -7.841239 -1.866678 -3.195339 -76.269093 -8.643048 4.998575 -6.637433 -4.489570 23.674945 2.930216 2.454072 7.706762 1.384966 -2.435957 -0.350755 0.448011 -0.019605 1.955158 -2.718028 9.262634 -9.001262 0.000000 -0.000000 0.000000 3.092272 3.086962 -5.553920 -0.280674 -0.206324 10.118541 -1.755017 -2.700782 -8.123785 0.000000 0.000000 0.000000 
216.464349 96.824423 397.028579 -1.647009 -9.433845 3.190367 0.878352 0.262439 1.465933 0.389548 0.119414 -5.175315 0.399657 0.079253 0.644987 0.299665 0.059834 6.320373 -1.111543 0.045909 16.168689 -2.041389 -0.313014 -5.994700 7.722394 0.604506 -2.811210 76.829068 10.920316 10.608707 4.942181 8.320089 28.974070 -2.851166 -6.516221 1.174123 -7.829497 -1.862739 -3.183539 -76.281262 -8.644753 5.005540 -6.638191 -4.489503 23.678001 2.929870 2.452543 7.708835 1.332943 -2.451933 -0.339446 0.484593 -0.023830 1.944983 -2.726934 9.276244 -9.007922 0.000000 0.000000 0.000000 3.057557 3.073114 -5.557937 -0.269437 -0.175075 10.133850 -1.759864 -2.718476 -8.131213 0.000000 0.000000 0.000000 
216.474162 96.822042 397.037905 -1.620824 -9.430349 3.186410 0.861892 0.258130 1.461764 0.382248 0.117439 -5.177151 0.392195 0.078029 0.643155 0.294070 0.058908 6.319001 -1.113371 0.047191 16.179625 -2.045197 -0.311164 -5.974388 7.726252 0.602684 -2.803912 76.831041 10.923938 10.604500 4.942815 8.320935 28.971509 -2.850137 -6.514623 1.173672 -7.817809 -1.858815 -3.171786 -76.293357 -8.646424 5.012509 -6.638950 -4.489424 23.681052 2.929455 2.451019 7.710882 1.281315 -2.467655 -0.328202 0.520917 -0.027608 1.934895 -2.735626 9.288810 -9.013995 0.000000 0.000000 0.000000 3.023093 3.059426 -5.561951 -0.258273 -0.144330 10.149193 -1.764605 -2.735944 -8.138692 0.000000 0.000000 0.000000 
216.483909 96.819676 397.047247 -1.595130 -9.426679 3.182502 0.845729 0.253858 1.457624 0.375080 0.115481 -5.178974 0.384865 0.076810 0.641337 0.288574 0.057985 6.317640 -1.115201 0.048399 16.190697 -2.048983 -0.309444 -5.953819 7.730158 0.600734 -2.796551 76.832872 10.927520 10.600364 4.943635 8.321922 28.968941 -2.849089 -6.512982 1.173226 -7.806225 -1.854918 -3.160126 -76.305306 -8.648027 5.019482 -6.639711 -4.489323 23.684093 2.928898 2.449501 7.712872 1.230476 -2.482876 -0.317102 0.556722 -0.030498 1.924973 -2.743890 9.299289 -9.018898 0.000000 0.000000 0.000000 2.989129 3.046060 -5.565961 -0.247258 -0.114589 10.164601 -1.769137 -2.752958 -8.146279 0.000000 0.000000 0.000000 
216.493554 96.817331 397.056614 -1.570174 -9.422750 3.178669 0.830015 0.249640 1.453528 0.368111 0.113550 -5.180779 0.377737 0.075595 0.639537 0.283229 0.057067 6.316291 -1.117031 0.049496 16.201978 -2.052730 -0.307925 -5.932861 7.734137 0.598593 -2.789091 76.834492 10.931044 10.596335 4.944738 8.323121 28.966362 -2.848008 -6.511275 1.172789 -7.794801 -1.851062 -3.148608 -76.317034 -8.649531 5.026463 -6.640472 -4.489189 23.687115 2.928129 2.447994 7.714779 1.180826 -2.497344 -0.306222 0.591745 -0.032064 1.915297 -2.751510 9.306639 -9.022038 0.000000 -0.000000 0.000000 2.955913 3.033176 -5.569971 -0.236476 -0.086356 10.180107 -1.773354 -2.769290 -8.154030 0.000000 0.000000 0.000000 
216.503066 96.815015 397.066013 -1.546202 -9.418476 3.174936 0.814899 0.245494 1.449491 0.361409 0.111653 -5.182557 0.370875 0.074389 0.637763 0.278085 0.056153 6.314962 -1.118864 0.050443 16.213536 -2.056427 -0.306675 -5.911387 7.738213 0.596198 -2.781503 76.835828 10.934488 10.592449 4.946215 8.324603 28.963769 -2.846888 -6.509483 1.172364 -7.783589 -1.847257 -3.137279 -76.328469 -8.650900 5.033453 -6.641235 -4.489009 23.690116 2.927079 2.446500 7.716574 1.132759 -2.510812 -0.295642 0.625725 -0.031864 1.905948 -2.758274 9.309817 -9.022833 0.000000 -0.000000 0.000000 2.923696 3.020936 -5.573980 -0.226003 -0.060133 10.195741 -1.777156 -2.784712 -8.162002 -0.000000 -0.000000 0.000000 
216.512409 96.812736 397.075455 -1.523460 -9.413771 3.171325 0.800529 0.241438 1.445527 0.355037 0.109799 -5.184304 0.364349 0.073191 0.636020 0.273191 0.055247 6.313656 -1.120699 0.051201 16.225440 -2.060062 -0.305764 -5.889267 7.742411 0.593483 -2.773752 76.836812 10.937837 10.588743 4.948161 8.326440 28.961158 -2.845716 -6.507583 1.171954 -7.772641 -1.843518 -3.126187 -76.339536 -8.652103 5.040455 -6.642000 -4.488774 23.693088 2.925676 2.445024 7.718229 1.086673 -2.523032 -0.285439 0.658397 -0.029462 1.897003 -2.763967 9.307777 -9.020691 0.000000 0.000000 0.000000 2.892726 3.009499 -5.577991 -0.215922 -0.036420 10.211535 -1.780439 -2.798994 -8.170252 -0.000000 -0.000000 0.000000 
216.521551 96.810500 397.084946 -1.502193 -9.408550 3.167862 0.787058 0.237490 1.441651 0.349064 0.107996 -5.186013 0.358223 0.072003 0.634316 0.268598 0.054351 6.312378 -1.122535 0.051733 16.237760 -2.063621 -0.305258 -5.866372 7.746754 0.590384 -2.765809 76.837372 10.941069 10.585252 4.950670 8.328702 28.958525 -2.844482 -6.505554 1.171563 -7.762011 -1.839858 -3.115379 -76.350162 -8.653105 5.047470 -6.642767 -4.488473 23.696027 2.923849 2.443569 7.719717 1.042966 -2.533756 -0.275692 0.689499 -0.024420 1.888542 -2.768374 9.299479 -9.015027 0.000000 0.000000 0.000000 2.863252 2.999029 -5.582006 -0.206312 -0.015720 10.227519 -1.783097 -2.811911 -8.178837 0.000000 -0.000000 0.000000 
216.530458 96.808315 397.094495 -1.482646 -9.402727 3.164572 0.774631 0.233668 1.437878 0.343554 0.106252 -5.187676 0.352566 0.070828 0.632655 0.264356 0.053462 6.311134 -1.124374 0.052000 16.250566 -2.067090 -0.305226 -5.842571 7.751268 0.586838 -2.757640 76.837436 10.944166 10.582011 4.953835 8.331460 28.955867 -2.843177 -6.503373 1.171193 -7.751752 -1.836287 -3.104904 -76.360275 -8.653874 5.054499 -6.643538 -4.488094 23.698926 2.921528 2.442136 7.721008 1.002036 -2.542733 -0.266480 0.718768 -0.016299 1.880645 -2.771283 9.283877 -9.005254 0.000000 0.000000 0.000000 2.835525 2.989686 -5.586024 -0.197253 0.001465 10.243724 -1.785031 -2.823231 -8.187813 0.000000 -0.000000 -0.000000 
216.539145 96.806176 397.104204 -1.464690 -9.396128 3.161398 0.763215 0.229869 1.434161 0.338494 0.104522 -5.189317 0.347356 0.069621 0.631017 0.260450 0.052551 6.309907 -1.126349 0.052029 16.263954 -2.070722 -0.305669 -5.817684 7.755887 0.582760 -2.749123 76.836812 10.947170 10.578965 4.958096 8.335040 28.953181 -2.841791 -6.500926 1.170882 -7.741866 -1.832777 -3.094715 -76.370075 -8.654419 5.061833 -6.644268 -4.487467 23.701945 2.918424 2.440819 7.722153 0.963581 -2.549816 -0.257657 0.746497 -0.003880 1.872991 -2.772448 9.258871 -8.989982 0.000000 -0.000000 0.000000 2.809305 2.981511 -5.590000 -0.188404 0.015789 10.260278 -1.786339 -2.833741 -8.197673 0.000000 0.000000 0.000000 
216.547658 96.804070 397.114130 -1.447972 -9.388735 3.158279 0.752623 0.226007 1.430451 0.333801 0.102767 -5.190955 0.342509 0.068351 0.629383 0.256816 0.051593 6.308683 -1.128543 0.051876 16.277909 -2.074691 -0.306509 -5.791738 7.760541 0.578164 -2.740218 76.835450 10.950133 10.576036 4.963631 8.339574 28.950467 -2.840331 -6.498164 1.170649 -7.732296 -1.829295 -3.084731 -76.379770 -8.654782 5.069653 -6.644933 -4.486496 23.705190 2.914432 2.439669 7.723211 0.926981 -2.555183 -0.249043 0.773159 0.013132 1.865294 -2.771950 9.224264 -8.968973 0.000000 0.000000 0.000000 2.784171 2.974355 -5.593904 -0.179464 0.028216 10.277228 -1.787199 -2.844187 -8.208669 0.000000 0.000000 0.000000 
216.556009 96.801996 397.124212 -1.432408 -9.380699 3.155230 0.742780 0.222128 1.426766 0.329440 0.101007 -5.192580 0.337992 0.067043 0.627758 0.253430 0.050606 6.307467 -1.130883 0.051553 16.292334 -2.078868 -0.307704 -5.764914 7.765252 0.573137 -2.731012 76.833502 10.953041 10.573232 4.970140 8.344838 28.947731 -2.838809 -6.495163 1.170475 -7.723007 -1.825850 -3.074947 -76.389297 -8.654979 5.077800 -6.645552 -4.485281 23.708580 2.909755 2.438636 7.724175 0.892146 -2.559072 -0.240670 0.798757 0.033794 1.857672 -2.770066 9.181862 -8.943361 0.000000 0.000000 0.000000 2.760092 2.968095 -5.597758 -0.170566 0.038710 10.294482 -1.787621 -2.854285 -8.220497 -0.000000 0.000000 -0.000000 
216.564214 96.799953 397.134388 -1.417911 -9.372168 3.152266 0.733611 0.218275 1.423124 0.325379 0.099261 -5.194188 0.333773 0.065717 0.626152 0.250268 0.049608 6.306263 -1.133298 0.051069 16.307135 -2.083123 -0.309211 -5.737392 7.770038 0.567766 -2.721590 76.831121 10.955883 10.570564 4.977325 8.350609 28.944976 -2.837233 -6.491999 1.170333 -7.713966 -1.822448 -3.065358 -76.398593 -8.655027 5.086113 -6.646151 -4.483922 23.712029 2.904592 2.437668 7.725036 0.858989 -2.561724 -0.232573 0.823296 0.057160 1.850247 -2.767068 9.133474 -8.914279 0.000000 0.000000 0.000000 2.737038 2.962602 -5.601589 -0.161847 0.047233 10.311951 -1.787617 -2.863755 -8.232855 0.000000 -0.000000 0.000000 
216.572284 96.797939 397.144597 -1.404399 -9.363295 3.149401 0.725038 0.214495 1.419542 0.321581 0.097549 -5.195772 0.329823 0.064400 0.624572 0.247306 0.048615 6.305079 -1.135714 0.050435 16.322213 -2.087328 -0.310986 -5.709351 7.774921 0.562140 -2.712040 76.828457 10.958648 10.568039 4.984884 8.356663 28.942207 -2.835616 -6.488750 1.170205 -7.705134 -1.819098 -3.055960 -76.407596 -8.654941 5.094436 -6.646752 -4.482519 23.715456 2.899148 2.436712 7.725785 0.827418 -2.563377 -0.224780 0.846779 0.082284 1.843139 -2.763229 9.080908 -8.882862 0.000000 0.000000 0.000000 2.714983 2.957754 -5.605421 -0.153443 0.053746 10.329546 -1.787199 -2.872312 -8.245438 0.000000 0.000000 0.000000 
